<svg width="404" height="150" viewBox="0 0 404 150" fill="none" xmlns="http://www.w3.org/2000/svg">
<g filter="url(#filter0_d_13_7)">
<path d="M21 71C21 43.3858 43.3858 21 71 21V21C98.6142 21 121 43.3858 121 71V71C121 98.6142 98.6142 121 71 121V121C43.3858 121 21 98.6142 21 71V71Z" fill="url(#paint0_linear_13_7)"/>
<path d="M71 120.5C43.6619 120.5 21.5 98.3381 21.5 71C21.5 43.6619 43.6619 21.5 71 21.5C98.3381 21.5 120.5 43.6619 120.5 71C120.5 98.3381 98.3381 120.5 71 120.5Z" stroke="#D31E1E"/>
</g>
<path d="M59.2869 91H67.2827V78.7386H74.0043C82.7017 78.7386 87.7614 73.5497 87.7614 65.9972C87.7614 58.4815 82.794 53.1818 74.2074 53.1818H59.2869V91ZM67.2827 72.331V59.7188H72.6747C77.2912 59.7188 79.5256 62.2301 79.5256 65.9972C79.5256 69.7457 77.2912 72.331 72.7116 72.331H67.2827Z" fill="white"/>
<path d="M140.045 94H169.841V85.8864H149.886V47.4545H140.045V94ZM192.085 94.6818C200.722 94.6818 206.54 90.4773 207.903 84L198.949 83.4091C197.972 86.0682 195.472 87.4545 192.244 87.4545C187.403 87.4545 184.335 84.25 184.335 79.0455V79.0227H208.108V76.3636C208.108 64.5 200.926 58.6364 191.699 58.6364C181.426 58.6364 174.767 65.9318 174.767 76.7045C174.767 87.7727 181.335 94.6818 192.085 94.6818ZM184.335 73.0227C184.54 69.0455 187.562 65.8636 191.858 65.8636C196.062 65.8636 198.972 68.8636 198.994 73.0227H184.335ZM245.972 59.0909H235.722L228.494 84.0682H228.131L220.881 59.0909H210.653L222.858 94H233.767L245.972 59.0909ZM265.648 94.6818C274.284 94.6818 280.102 90.4773 281.466 84L272.511 83.4091C271.534 86.0682 269.034 87.4545 265.807 87.4545C260.966 87.4545 257.898 84.25 257.898 79.0455V79.0227H281.67V76.3636C281.67 64.5 274.489 58.6364 265.261 58.6364C254.989 58.6364 248.33 65.9318 248.33 76.7045C248.33 87.7727 254.898 94.6818 265.648 94.6818ZM257.898 73.0227C258.102 69.0455 261.125 65.8636 265.42 65.8636C269.625 65.8636 272.534 68.8636 272.557 73.0227H257.898ZM297.67 47.4545H287.989V94H297.67V47.4545ZM334.358 47.4545V76.8409C334.358 82.1591 330.631 86 324.903 86C319.199 86 315.449 82.1591 315.449 76.8409V47.4545H305.608V77.6818C305.608 87.8636 313.29 94.6591 324.903 94.6591C336.472 94.6591 344.199 87.8636 344.199 77.6818V47.4545H334.358ZM352.114 107.091H361.795V88.4091H362.091C363.432 91.3182 366.364 94.5682 372 94.5682C379.955 94.5682 386.159 88.2727 386.159 76.5909C386.159 64.5909 379.682 58.6364 372.023 58.6364C366.182 58.6364 363.386 62.1136 362.091 64.9545H361.659V59.0909H352.114V107.091ZM361.591 76.5455C361.591 70.3182 364.227 66.3409 368.932 66.3409C373.727 66.3409 376.273 70.5 376.273 76.5455C376.273 82.6364 373.682 86.8636 368.932 86.8636C364.273 86.8636 361.591 82.7727 361.591 76.5455Z" fill="#373C4E"/>
<defs>
<filter id="filter0_d_13_7" x="0" y="0" width="150" height="150" filterUnits="userSpaceOnUse" color-interpolation-filters="sRGB">
<feFlood flood-opacity="0" result="BackgroundImageFix"/>
<feColorMatrix in="SourceAlpha" type="matrix" values="0 0 0 0 0 0 0 0 0 0 0 0 0 0 0 0 0 0 127 0" result="hardAlpha"/>
<feOffset dx="4" dy="4"/>
<feGaussianBlur stdDeviation="12.5"/>
<feComposite in2="hardAlpha" operator="out"/>
<feColorMatrix type="matrix" values="0 0 0 0 0.716667 0 0 0 0 0.352361 0 0 0 0 0.352361 0 0 0 1 0"/>
<feBlend mode="normal" in2="BackgroundImageFix" result="effect1_dropShadow_13_7"/>
<feBlend mode="normal" in="SourceGraphic" in2="effect1_dropShadow_13_7" result="shape"/>
</filter>
<linearGradient id="paint0_linear_13_7" x1="21" y1="71" x2="121" y2="71" gradientUnits="userSpaceOnUse">
<stop stop-color="#1D3076"/>
<stop offset="1" stop-color="#C71111"/>
</linearGradient>
</defs>
</svg>
